<?xml version="1.0" encoding="UTF-8"?>
<svg xmlns="http://www.w3.org/2000/svg" xmlns:xlink="http://www.w3.org/1999/xlink" style="display: none;">
  <!-- Ikon Pengalaman, Informasi, dan Pengetahuan -->
  <symbol id="experience-information-knowledge" viewBox="0 0 64 64">
    <path d="M20,53a2,2,0,0,0-2,2h4A2,2,0,0,0,20,53Z"/>
    <path d="M24,49a2,2,0,0,0-2,2h4A2,2,0,0,0,24,49Z"/>
    <path d="M40,49a2,2,0,0,0-2,2h4A2,2,0,0,0,40,49Z"/>
    <path d="M8,62H56A24,24,0,0,0,8,62Zm21-7.04449A3.04445,3.04445,0,0,1,25.95557,58H17.0235a3.00173,3.00173,0,0,1-3.02008-2.83289,4,4,0,0,1,4.02826-4.167v-.00024A3.96846,3.96846,0,0,1,22,47v-.30194a3.6336,3.6336,0,0,1,3.31177-3.69312A3.5002,3.5002,0,0,1,29,46.5ZM35,46.5a3.5002,3.5002,0,0,1,3.68823-3.49506A3.6336,3.6336,0,0,1,42,46.69806V47a3.96846,3.96846,0,0,1,3.96832,3.99988v.00024a4,4,0,0,1,4.02826,4.167A3.00173,3.00173,0,0,1,46.9765,58H38.04443A3.04445,3.04445,0,0,1,35,54.95551Z"/>
    <path d="M46,56a2,2,0,0,0-4,0Z"/>
    <path d="M7,4a3,3,0,0,1,0,6,1,1,0,0,0-1,1v5H8V11.89941A5.00019,5.00019,0,1,0,2,7H4A3.00328,3.00328,0,0,1,7,4Z"/>
    <rect height="2" width="2" x="6" y="18"/>
    <polygon points="51 17 41 13 41 27 51 31 51 17"/>
    <polygon points="52 31 62 27 62 13 52 17 52 31"/>
    <path d="M6.71332,35.3916A4.28544,4.28544,0,0,0,10.05975,37H21V25H8v7H4ZM18,33.5H15v-1h3Zm-7-5h7v1H11Zm0,4h2v1H11Z"/>
    <path d="M30,4a5.99672,5.99672,0,0,0-1,11.91V24h2V15.91A5.99672,5.99672,0,0,0,30,4Zm0,3.5A2.50294,2.50294,0,0,0,27.5,10h-1A3.50424,3.50424,0,0,1,30,6.5Z"/>
  </symbol>

  <!-- Ikon Persyaratan Keterampilan -->
  <symbol id="skill-requirement" viewBox="0 0 100 100">
    <path d="M50.08,57.86a6.77,6.77,0,1,1,6.63-6.77A6.71,6.71,0,0,1,50.08,57.86Z" fill-rule="evenodd"/>
    <path d="M80.79,46.64H75.22V26.7A6.8,6.8,0,0,0,68.53,20H31.47a6.8,6.8,0,0,0-6.69,6.71V46.64H19.21a3.36,3.36,0,0,0,0,6.71h5.57V73.3A6.8,6.8,0,0,0,31.47,80H68.53a6.8,6.8,0,0,0,6.69-6.71V53.36h5.57a3.36,3.36,0,0,0,0-6.71ZM66.72,59.44l-1.17,2a2.67,2.67,0,0,1-2.15,1.19,2.8,2.8,0,0,1-.88-.2l-3.22-1.29a14,14,0,0,1-4.68,2.79L54,67.6a2.52,2.52,0,0,1-2.44,2.09H49.16a2.52,2.52,0,0,1-2.44-2.09l-.59-3.68a12.07,12.07,0,0,1-4.49-2.59l-3.41,1.29a2.8,2.8,0,0,1-.88.2,2.53,2.53,0,0,1-2.15-1.29L34,59.44a2.52,2.52,0,0,1,.59-3.19l2.83-2.39a13.32,13.32,0,0,1-.29-2.69,12.39,12.39,0,0,1,.29-2.59L34.63,46.2A2.5,2.5,0,0,1,34,43l1.17-2.09a2.42,2.42,0,0,1,2.15-1.29,2.8,2.8,0,0,1,.88.2l3.41,1.29a13.88,13.88,0,0,1,4.49-2.69L46.72,35a2.34,2.34,0,0,1,2.44-2H51.6A2.35,2.35,0,0,1,54,34.85l.59,3.58A13.6,13.6,0,0,1,59.11,41l3.41-1.29a2.8,2.8,0,0,1,.88-.2,2.53,2.53,0,0,1,2.15,1.29l1.17,2.09a2.65,2.65,0,0,1-.59,3.19l-2.83,2.39a12.59,12.59,0,0,1,.29,2.69,12.39,12.39,0,0,1-.29,2.59l2.83,2.39A2.63,2.63,0,0,1,66.72,59.44Z" fill-rule="evenodd"/>
  </symbol>

  <!-- Ikon Konfigurasi Proyek -->
  <symbol id="project-configuration" viewBox="0 0 512 512">
    <g id="Page-1" stroke="none" stroke-width="1" fill="none" fill-rule="evenodd">
      <g id="icon" fill="#000000" transform="translate(42.666667, 42.666667)">
        <path d="M277.333333,234.666667 L277.333,255.999667 L298.666667,256 L298.666667,298.666667 L277.333,298.666667 L277.333333,426.666667 L256,426.666667 L256,298.666667 L234.666667,298.666667 L234.666667,256 L256,255.999667 L256,234.666667 L277.333333,234.666667 Z M341.333333,234.666667 L341.333,341.332667 L362.666667,341.333333 L362.666667,384 L341.333,383.999667 L341.333333,426.666667 L320,426.666667 L320,383.999667 L298.666667,384 L298.666667,341.333333 L320,341.332667 L320,234.666667 L341.333333,234.666667 Z M405.333333,234.666667 L405.333,277.332667 L426.666667,277.333333 L426.666667,320 L405.333,319.999667 L405.333333,426.666667 L384,426.666667 L384,319.999667 L362.666667,320 L362.666667,277.333333 L384,277.332667 L384,234.666667 L405.333333,234.666667 Z M170.666667,7.10542736e-15 L341.333333,96 L341.333,213.333 L298.666,213.333 L298.666,138.747 L192,200.331 L192,323.018 L213.333,311.018 L213.333333,320 L234.666667,320 L234.666,348 L170.666667,384 L3.55271368e-14,288 L3.55271368e-14,96 L170.666667,7.10542736e-15 Z M42.666,139.913 L42.6666667,263.04 L149.333,323.022 L149.333,201.497 L42.666,139.913 Z M170.666667,48.96 L69.246,105.991 L169.656,163.963 L271.048,105.424 L170.666667,48.96 Z" id="Combined-Shape"/>
      </g>
    </g>
  </symbol>

  <!-- Ikon Monitor Coding -->
  <symbol id="coding-monitor" viewBox="0 0 480 480">
    <g>
      <g>
        <path d="M56,416c-30.872,0-56,25.128-56,56c0,4.424,3.576,8,8,8h96c4.424,0,8-3.576,8-8C112,441.128,86.872,416,56,416z
           M16.808,464C19.992,448.36,32.36,436.072,48,432.88V448h16v-15.12c15.64,3.2,28.008,15.48,31.192,31.12H16.808z"/>
      </g>
    </g>
    <g>
      <g>
        <path d="M472,344h-14.032c-0.44-1.112-0.896-2.216-1.392-3.328l9.928-9.928c3.128-3.128,3.128-8.184,0-11.312l-33.936-33.936
          c-1.656-1.656-3.84-2.376-6.008-2.272C439.24,276.496,448,263.32,448,248V40c0-22.056-17.944-40-40-40H40C17.944,0,0,17.944,0,40
          v208c0,22.056,17.944,40,40,40h104.4l-30.224,56H112h-12c-15.44,0-28,12.56-28,28s12.56,28,28,28h172c0,4.424,3.576,8,8,8h14.032
          c0.44,1.112,0.896,2.216,1.392,3.328l-9.928,9.928c-3.128,3.128-3.128,8.184,0,11.312l33.936,33.936
          c3.128,3.128,8.184,3.128,11.312,0l9.928-9.928c1.112,0.496,2.216,0.952,3.328,1.392V472c0,4.424,3.576,8,8,8h48
          c4.424,0,8-3.576,8-8v-14.032c1.112-0.44,2.216-0.896,3.328-1.392l9.928,9.928c3.128,3.128,8.184,3.128,11.312,0l33.936-33.936
          c3.128-3.128,3.128-8.184,0-11.312l-9.928-9.928c0.496-1.112,0.952-2.216,1.392-3.328H472c4.424,0,8-3.576,8-8v-48
          C480,347.576,476.424,344,472,344z M16,40c0-13.232,10.768-24,24-24h368c13.232,0,24,10.768,24,24v168H16V40z M40,272
          c-13.232,0-24-10.768-24-24v-24h416v24c0,13.232-10.768,24-24,24h-8h-48h-61.808H157.808H40z M421.152,285.6l-9.824,9.824
          c-1.112-0.496-2.216-0.952-3.328-1.392V288C412.632,288,417.008,287.056,421.152,285.6z M344,288v6.032
          c-1.112,0.44-2.216,0.896-3.328,1.392L333.248,288H344z M316.92,288l-6.896,6.896L305.328,288H316.92z M272,384H100
          c-6.616,0-12-5.384-12-12c0-6.616,5.384-12,12-12h12h6.944H272V384z M132.356,343.992L162.576,288h123.392l12.544,18.408
          l-13.016,13.016c-3.128,3.128-3.128,8.184,0,11.312l9.928,9.928c-0.496,1.112-0.952,2.216-1.392,3.328H280H132.356z M464,392
          h-11.672c-3.496,0-6.576,2.264-7.632,5.592c-1.216,3.864-2.856,7.8-4.88,11.672c-1.616,3.104-1.032,6.888,1.44,9.36l8.288,8.288
          l-22.624,22.624l-8.288-8.288c-2.48-2.472-6.256-3.048-9.36-1.44c-3.872,2.024-7.808,3.664-11.672,4.88
          c-3.336,1.064-5.6,4.144-5.6,7.64V464h-32v-11.672c0-3.496-2.264-6.576-5.592-7.632c-3.864-1.216-7.8-2.856-11.672-4.88
          c-3.104-1.608-6.888-1.032-9.36,1.44l-8.288,8.288l-22.624-22.624l8.288-8.288c2.472-2.472,3.056-6.256,1.44-9.36
          c-2.024-3.872-3.664-7.808-4.88-11.672c-1.064-3.336-4.144-5.6-7.64-5.6H288v-32h11.672c3.496,0,6.576-2.264,7.632-5.592
          c1.216-3.864,2.856-7.8,4.88-11.672c1.616-3.104,1.032-6.888-1.44-9.36l-8.288-8.288l22.624-22.624l8.288,8.288
          c2.472,2.48,6.256,3.056,9.36,1.44c3.872-2.024,7.808-3.664,11.672-4.88c3.336-1.064,5.6-4.144,5.6-7.64V288h32v11.672
          c0,3.496,2.264,6.576,5.592,7.632c3.864,1.216,7.8,2.856,11.672,4.88c3.104,1.616,6.88,1.04,9.36-1.44l8.288-8.288l22.624,22.624
          l-8.288,8.288c-2.472,2.472-3.056,6.256-1.44,9.36c2.024,3.872,3.664,7.808,4.88,11.672c1.064,3.336,4.144,5.6,7.64,5.6H464V392z"
          />
      </g>
    </g>
    <g>
      <g>
        <path d="M376,328c-26.472,0-48,21.528-48,48s21.528,48,48,48s48-21.528,48-48S402.472,328,376,328z M376,408
          c-17.648,0-32-14.352-32-32s14.352-32,32-32s32,14.352,32,32S393.648,408,376,408z"/>
      </g>
    </g>
    <g>
      <g>
        <path d="M157.656,61.656l-11.312-11.312l-56,56c-3.128,3.128-3.128,8.184,0,11.312l56,56l11.312-11.312L107.312,112
          L157.656,61.656z"/>
      </g>
    </g>
    <g>
      <g>
        <path d="M333.656,106.344l-56-56l-11.312,11.312L316.688,112l-50.344,50.344l11.312,11.312l56-56
          C336.784,114.528,336.784,109.472,333.656,106.344z"/>
      </g>
    </g>
    <g>
      <g>
        <rect x="131.509" y="96.019" transform="matrix(0.4472 -0.8944 0.8944 0.4472 24.1457 247.1068)" width="160.955" height="16"/>
      </g>
    </g>
    <g>
      <g>
        <rect x="312" y="160" width="16" height="16"/>
      </g>
    </g>
    <g>
      <g>
        <rect x="344" y="160" width="16" height="16"/>
      </g>
    </g>
    <g>
      <g>
        <rect x="376" y="160" width="16" height="16"/>
      </g>
    </g>
  </symbol>

  <!-- Ikon Kartu Bisnis Kontak -->
  <symbol id="contact-business-card" viewBox="0 0 64 64">
    <g id="_x32_5_attachment"/>
    <g id="_x32_4_office"/>
    <g id="_x32_3_pin"/>
    <g id="_x32_2_business_card">
      <g>
        <g>
          <path d="M61.0112,9.9204H2.9888C1.8921,9.9204,1,10.8125,1,11.9092v40.1816c0,1.0967,0.8921,1.9888,1.9888,1.9888h58.0225     c1.0967,0,1.9888-0.8921,1.9888-1.9888V11.9092C63,10.8125,62.1079,9.9204,61.0112,9.9204z M2.9983,16.8672h58.0031     l0.0084,30.2656H2.9998L2.9983,16.8672z M61,11.9092l0.0009,2.958H2.9982L2.998,11.9204L61,11.9092z M3,52.0908l-0.0001-2.958     h58.0106l0.0008,2.9468L3,52.0908z"/>
          <path d="M45.9526,19.5654c-6.6436,0-12.0488,5.4053-12.0488,12.0493c0,6.6436,5.4053,12.0488,12.0488,12.0488     c6.6416,0,12.0449-5.4053,12.0449-12.0488C57.9976,24.9707,52.5942,19.5654,45.9526,19.5654z M45.9526,41.6636     c-2.1734,0-4.1822-0.7008-5.8279-1.8782c0.9388-2.3649,3.2468-3.9661,5.8279-3.9661c2.5791,0,4.8859,1.6016,5.825,3.9665     C50.1325,40.963,48.1248,41.6636,45.9526,41.6636z M53.3403,38.3998c-1.3822-2.757-4.2274-4.5805-7.3876-4.5805     c-3.1621,0-6.0085,1.8232-7.3909,4.5803c-1.6445-1.7899-2.658-4.1683-2.658-6.7849c0-5.541,4.5078-10.0493,10.0488-10.0493     c5.5386,0,10.0449,4.5083,10.0449,10.0493C55.9976,34.2314,54.9843,36.6099,53.3403,38.3998z"/>
          <path d="M45.9526,24.105c-2.3052,0-4.1807,1.875-4.1807,4.1802s1.8755,4.1807,4.1807,4.1807s4.1802-1.8755,4.1802-4.1807     S48.2578,24.105,45.9526,24.105z M45.9526,30.4658c-1.2026,0-2.1807-0.978-2.1807-2.1807c0-1.2021,0.978-2.1802,2.1807-2.1802     c1.2021,0,2.1802,0.978,2.1802,2.1802C48.1328,29.4878,47.1548,30.4658,45.9526,30.4658z"/>
          <path d="M26.8872,31.897H14.0479c-0.5522,0-1,0.4478-1,1s0.4478,1,1,1h12.8394c0.5522,0,1-0.4478,1-1     S27.4395,31.897,26.8872,31.897z"/>
          <path d="M26.8872,36.2563H9.9893c-0.5522,0-1,0.4478-1,1s0.4478,1,1,1h16.8979c0.5522,0,1-0.4478,1-1     S27.4395,36.2563,26.8872,36.2563z"/>
          <path d="M26.8872,40.6123H9.9893c-0.5522,0-1,0.4478-1,1s0.4478,1,1,1h16.8979c0.5522,0,1-0.4478,1-1     S27.4395,40.6123,26.8872,40.6123z"/>
        </g>
        <g>
          <g>
            <path d="M27.0459,28H9.9507C8.875,28,8,27.125,8,26.0493v-4.0986C8,20.875,8.875,20,9.9507,20h17.106      C28.1284,20,29,20.9097,29,22.0278v4.0181C29,27.1235,28.1235,28,27.0459,28z M9.9794,22v4h17.0665v-4H9.9794z"/>
          </g>
        </g>
      </g>
    </g>
    <g id="_x32_1_form"/>
    <g id="_x32_0_headset"/>
    <g id="_x31_9_video_call"/>
    <g id="_x31_8_letter_box"/>
    <g id="_x31_7_papperplane"/>
    <g id="_x31_6_laptop"/>
    <g id="_x31_5_connection"/>
    <g id="_x31_4_phonebook"/>
    <g id="_x31_3_classic_telephone"/>
    <g id="_x31_2_sending_mail"/>
    <g id="_x31_1_man_talking"/>
    <g id="_x31_0_date"/>
    <g id="_x30_9_review"/>
    <g id="_x30_8_email"/>
    <g id="_x30_7_information"/>
    <g id="_x30_6_phone_talking"/>
    <g id="_x30_5_women_talking"/>
    <g id="_x30_4_calling"/>
    <g id="_x30_3_women"/>
    <g id="_x30_2_writing"/>
    <g id="_x30_1_chatting"/>
  </symbol>

  <!-- Ikon Layar Penuh -->
  <symbol id="fullscreen" viewBox="-0.5 0 25 25">
    <path d="M8.93994 9.39998V5.48999C8.93994 5.20999 9.15994 4.98999 9.43994 4.98999H20.9999C21.2799 4.98999 21.4999 5.20999 21.4999 5.48999V13.09C21.4999 13.37 21.2799 13.59 20.9999 13.59L17.0599 13.6" stroke="#0F0F0F" stroke-miterlimit="10" stroke-linecap="round" stroke-linejoin="round"/>
    <path d="M17.7301 8.72998L16.4301 10.03" stroke="#0F0F0F" stroke-miterlimit="10" stroke-linecap="round" stroke-linejoin="round"/>
    <path d="M3 11.4H14.56C14.84 11.4 15.06 11.62 15.06 11.9V19.51C15.06 19.79 14.84 20.01 14.56 20.01H3C2.72 20.01 2.5 19.79 2.5 19.51V11.9C2.5 11.63 2.72 11.4 3 11.4Z" stroke="#0F0F0F" stroke-miterlimit="10" stroke-linecap="round" stroke-linejoin="round"/>
    <path d="M19.32 10.03V7.64001C19.32 7.36001 19.1 7.14001 18.82 7.14001H16.42" stroke="#0F0F0F" stroke-miterlimit="10" stroke-linecap="round" stroke-linejoin="round"/>
  </symbol>

  <!-- Ikon Switch Ganda -->
  <symbol id="switch-double" viewBox="0 0 24 24">
    <path d="M12,6.5A5.37,5.37,0,0,0,13.26,10H5.5a3.5,3.5,0,1,1,0-7h7.77A5.4,5.4,0,0,0,12,6.5Z"></path>
    <path d="M22,17.5A3.48,3.48,0,0,1,18.5,21H10.73A5.4,5.4,0,0,0,12,17.5,5.45,5.45,0,0,0,10.73,14H18.5A3.5,3.5,0,0,1,22,17.5Z"></path>
    <path d="M22,6.07A4.5,4.5,0,0,0,17.5,2,4.52,4.52,0,0,0,13,6.5a4.4,4.4,0,0,0,1.36,3.21A4.45,4.45,0,0,0,17.5,11,4.5,4.5,0,0,0,22,6.93a2.08,2.08,0,0,0,0-.43A2.08,2.08,0,0,0,22,6.07Z"></path>
    <path d="M6.5,13A4.5,4.5,0,0,0,2,17.07a3.1,3.1,0,0,0,0,.86A4.5,4.5,0,0,0,6.5,22a4.44,4.44,0,0,0,3.13-1.28A4.4,4.4,0,0,0,11,17.5,4.52,4.52,0,0,0,6.5,13Z"></path>
  </symbol>
</svg>